# xmcd
#
# Track frame offsets: 
#        150
#        19477
#        33312
#        46700
#
# Disc length: 822 seconds
#
# Revision: 0
# Processed by: cddbd v1.5PL3 Copyright (c) Steve Scherf et al.
# Submitted via: ExactAudioCopy v0.95a3
#
DISCID=28033404
DTITLE=Never Good Enough - My Last Excuse...
DYEAR=1999
DGENRE=Punk Rock
TTITLE0=my last excuse...
TTITLE1=1997[ride on time]
TTITLE2=time is money
TTITLE3=bright
EXTD=
EXTT0=
EXTT1=
EXTT2=
EXTT3=
PLAYORDER=
